<svg id="Layer_1" data-name="Layer 1" xmlns="http://www.w3.org/2000/svg" viewBox="0 0 272.63 335.82"><defs><style>.cls-1{fill:#00dfba;}</style></defs><title>Paper</title><path class="cls-1" d="M758.25,389.66a18.09,18.09,0,0,0-18.07,18.07v86.39a4,4,0,0,1-8,0V365.27A21.21,21.21,0,0,0,711,344.09a20.92,20.92,0,0,0-15.29,6.29,21.42,21.42,0,0,0-5.9,15V494.12a4,4,0,0,1-8,0V367A22.88,22.88,0,0,0,659,344.09c-14.31,0-22.86,12.35-22.86,24.3V494.12a4,4,0,0,1-8,0v-103A21.2,21.2,0,0,0,606.91,370c-13.26,0-21.18,11.45-21.18,22.53V548.76h47a64.48,64.48,0,0,1,48.85,22.37,4,4,0,0,1-6,5.23,56.51,56.51,0,0,0-42.8-19.6h-51a3.07,3.07,0,0,1-.53-.06l-.2,0a3.85,3.85,0,0,1-1-.31l-.21-.11a4.7,4.7,0,0,1-.74-.52l-.1-.07L559.16,537a37.67,37.67,0,0,0-52.56.73,9.81,9.81,0,0,0-.3,13.65l75.11,81.49c30.13,33.4,60.75,47,105.69,47,49.19,0,89.21-40.44,89.21-90.14V408.62C776.31,399.43,770,389.66,758.25,389.66Z" transform="translate(-503.69 -344.09)"/></svg>