<svg id="Layer_1" data-name="Layer 1" xmlns="http://www.w3.org/2000/svg" viewBox="0 0 238 257.25"><defs><style>.cls-1{fill:#fe2bf1;}</style></defs><title>Rock</title><path class="cls-1" d="M698.1,425.67v-53.4a26.59,26.59,0,1,0-53.17,0V424.2h46.89A14.19,14.19,0,0,1,698.1,425.67Z" transform="translate(-517.57 -345.68)"/><path class="cls-1" d="M575.09,424.2V370.25a22.22,22.22,0,0,0-44.44,0v66.48a56.19,56.19,0,0,1,35.42-12.53Z" transform="translate(-517.57 -345.68)"/><path class="cls-1" d="M730.84,479.73a32.72,32.72,0,0,1-28.31-16.37,49.65,49.65,0,0,1-46,31.11H623.29a54.64,54.64,0,0,1,26.2,46.63v15a4,4,0,0,1-8,0v-15a46.69,46.69,0,0,0-46.63-46.63h-.71a4,4,0,0,1-4-4h0a4,4,0,0,1,4-4h62.39a41.6,41.6,0,0,0,41.56-41.56v-6.43a6.28,6.28,0,0,0-6.28-6.28H566.07a48.42,48.42,0,0,0-36.94,17.12c-.67.8-1.33,1.6-2,2.43-.25.34-.49.69-.73,1-.61.86-1.2,1.73-1.75,2.63-.18.29-.35.59-.52.89-.56,1-1.1,1.94-1.59,2.93-.08.16-.17.32-.24.49-.56,1.16-1.06,2.34-1.53,3.54l-.18.46c-.45,1.22-.85,2.46-1.21,3.71,0,.16-.09.32-.14.48-.34,1.25-.63,2.53-.87,3.81l-.09.5c-.23,1.29-.41,2.6-.54,3.91l0,.46c-.11,1.35-.19,2.72-.19,4.09,0,3.3.17,6.55.43,9.78,5,62.84,57.7,112.46,121.81,112.46h14.55A101.32,101.32,0,0,0,755.57,501.71V468.38A32.62,32.62,0,0,1,730.84,479.73Z" transform="translate(-517.57 -345.68)"/><path class="cls-1" d="M636.93,372.6a26.92,26.92,0,1,0-53.84,0v51.6h53.84Z" transform="translate(-517.57 -345.68)"/><path class="cls-1" d="M730.84,384.66A24.77,24.77,0,0,0,706.1,409.4V447a24.74,24.74,0,0,0,49.47,0V409.4A24.76,24.76,0,0,0,730.84,384.66Z" transform="translate(-517.57 -345.68)"/></svg>