<svg id="Layer_1" data-name="Layer 1" xmlns="http://www.w3.org/2000/svg" viewBox="0 0 228.51 367.29"><defs><style>.cls-1{fill:#0c7ceb;}</style></defs><title>Scissor</title><path class="cls-1" d="M601.93,530.18h40V486.34A32.23,32.23,0,0,1,652,462.88L667.33,354a22.69,22.69,0,0,0-44.93-6.31L601.22,493.16a4,4,0,0,1-7.92,0L572,347.23a22.68,22.68,0,1,0-44.93,6.29c5.87,43.81,10.31,75.06,13.56,97.88,8.22,57.79,9.61,67.63,9.85,108.53A59.4,59.4,0,0,1,601.93,530.18Z" transform="translate(-526.88 -327.68)"/><path class="cls-1" d="M731,579a32.36,32.36,0,0,1-27-14.54,44.76,44.76,0,0,1-41.89,29.1h-16A51.38,51.38,0,0,1,670,636.92v14a4,4,0,0,1-8,0v-14a43.42,43.42,0,0,0-43.37-43.37,4,4,0,0,1-4-4h0a4,4,0,0,1,4-4h43.52a36.54,36.54,0,0,0,23.73-8.74A37.25,37.25,0,0,0,694,567a36.4,36.4,0,0,0,4.77-17.28c0-.28,0-.54,0-.82a10,10,0,0,0-.17-1.66c0-.13,0-.27,0-.39a10.7,10.7,0,0,0-10.48-8.63H601.93a51.43,51.43,0,0,0-51.37,51.37h0c0,30.6,11.51,58.24,32.41,77.82a102.88,102.88,0,0,0,76.83,27.38c53.59-3.48,95.58-50,95.58-105.84v-21A32.29,32.29,0,0,1,731,579Z" transform="translate(-526.88 -327.68)"/><path class="cls-1" d="M731,487.59A24.39,24.39,0,0,0,706.64,512v34.33a19.67,19.67,0,0,1,.19,2.57c0,.2,0,.4,0,.61a24.36,24.36,0,0,0,48.56-2.85V512A24.39,24.39,0,0,0,731,487.59Z" transform="translate(-526.88 -327.68)"/><path class="cls-1" d="M666.38,463.3q-.54.18-1,.39l-1,.43-1.07.52-.92.49c-.38.21-.75.44-1.11.67s-.52.33-.78.51-.77.56-1.14.85l-.65.51a24.34,24.34,0,0,0-8.73,18.67v43.84h38.26a18.57,18.57,0,0,1,10.49,3.23V486.34a24.42,24.42,0,0,0-21.89-24.25q-1.23-.12-2.49-.12a22.24,22.24,0,0,0-2.32.12c-.31,0-.62.08-.92.12s-.9.12-1.34.2-.73.16-1.09.25-.74.18-1.11.29Z" transform="translate(-526.88 -327.68)"/></svg>