<svg id="Layer_1" data-name="Layer 1" xmlns="http://www.w3.org/2000/svg" viewBox="0 0 283.56 319.75"><defs><style>.cls-1{fill:#2c2c4c;}</style></defs><title>Vs</title><path class="cls-1" d="M635.59,377l-54.14,107L556.28,379.13l-.5-2.09H502.59L548.25,568.4l-.21.6H530.57l-32,102.7,52.75-75.17h21.8l3.42-6.79,9.6-19.14h0l75.18-148.52,22.81-45ZM561.54,587.22,510.72,381.79l55.06,200.29,5.75,5.14Zm17.25-69.88L551.25,380.58l27.84,116.48L639,380.58Z" transform="translate(-498.59 -351.95)"/><path class="cls-1" d="M693,513.79a9,9,0,0,1,2.84,0c2.78.42,5.47.93,8.1,1.52,36.44,7.95,57.27,28,57.28,28.07l21-41.4a123.25,123.25,0,0,0-57.3-28.73s-9.24-2.18-14.05-3.13l5.2-15.53h17.47l32-102.68-52.74,75.16H690.9l-23.28,46.38L651.29,506l-27,53.37a61.44,61.44,0,0,0,17.42,17c3.46,2.22,7.4,4.51,11.77,6.86s8.95,4.65,14.06,7.08c3.75,1.82,7.1,3.5,10,5.06,1.34.74,2.6,1.44,3.77,2.11A11.14,11.14,0,0,1,687,607v.1c0,6.27-4.47,12.35-10.33,13.15a9.87,9.87,0,0,1-2.82,0q-4.17-.66-8.08-1.52c-36.44-8-57.29-28.06-57.3-28.1l-5.59,11L587.48,632a123.27,123.27,0,0,0,57.35,28.75L646,661a1.39,1.39,0,0,1,.33.07,145.34,145.34,0,0,0,45.44,1.44,102.7,102.7,0,0,0,10.22-2,84.39,84.39,0,0,0,14.3-4.91q17.79-8.08,27.22-22.3a56.58,56.58,0,0,0,9.43-32q0-15.58-7.38-26.38c-.08-.12-.14-.23-.21-.33a61.87,61.87,0,0,0-17.43-17q-5.25-3.36-11.89-6.91c-13.27-6.55-25.38-11.64-25.38-11.64a13.18,13.18,0,0,1-5.59-4.52,12.85,12.85,0,0,1-2.44-7.59C682.64,520.7,687.11,514.61,693,513.79ZM593,630.43l16.23-32.69L598,631s30.53,28.6,80.45,28.52C678.41,659.53,624.09,662.66,593,630.43ZM684.77,594l-33.14-17.35c-20.76-9.31-21.33-20.42-21.33-20.42l45.38-88.5L636,556s-.57,5.91,16.78,16.8C669.58,583.32,683.91,593.36,684.77,594Z" transform="translate(-498.59 -351.95)"/><path class="cls-1" d="M711.91,354.56c-47.21,103.24-99.09,205.87-154.3,305C604.79,556.37,656.72,453.76,711.91,354.56Z" transform="translate(-498.59 -351.95)"/></svg>